# xmcd CD database file
#
# Track frame offsets:
#	150
#	16597
#	35483
#	53900
#	71213
#	87571
#	103025
#	121314
#	137415
#	155433
#	174916
#	192799
#
# Disc length: 4083 seconds
#
# Revision: 0
# Processed by: cddbd v1.5PL3 Copyright (c) Steve Scherf et al.
# Submitted via: CDex 1.51
#
DISCID=980ff10c
DTITLE=Carmen Consoli - Stato di Necessità
DYEAR=1900
DGENRE=Blues
TTITLE0=Bambina Impertinente
TTITLE1=Stato di Necessità
TTITLE2=Parole di Burro
TTITLE3=Novembre 99
TTITLE4=In Bianco e Nero
TTITLE5=L'ultimo Bacio
TTITLE6=Il Sultano
TTITLE7=Amado Senor
TTITLE8=L'Epilogo
TTITLE9=Orfeo
TTITLE10=Equilibrio Precario
TTITLE11=Non Volermi Male
EXTD=
EXTT0=
EXTT1=
EXTT2=
EXTT3=
EXTT4=
EXTT5=
EXTT6=
EXTT7=
EXTT8=
EXTT9=
EXTT10=
EXTT11=
PLAYORDER=
